<?xml version="1.0" standalone="no"?>
<!DOCTYPE svg PUBLIC "-//W3C//DTD SVG 20010904//EN"
 "http://www.w3.org/TR/2001/REC-SVG-20010904/DTD/svg10.dtd">
<svg version="1.0" xmlns="http://www.w3.org/2000/svg"
 width="752.000000pt" height="752.000000pt" viewBox="0 0 752.000000 752.000000"
 preserveAspectRatio="xMidYMid meet">

<g transform="translate(0.000000,752.000000) scale(0.100000,-0.100000)"
fill="#000000" stroke="none">
<path d="M2018 5874 c-184 -44 -341 -199 -377 -372 -8 -37 -11 -433 -11 -1330
0 -1372 -2 -1320 51 -1429 31 -66 150 -182 221 -216 103 -49 154 -57 380 -57
l208 0 0 -376 c0 -330 2 -379 16 -404 30 -50 88 -71 152 -53 13 3 270 192 570
419 l546 414 836 0 c910 0 889 -1 1010 57 68 33 186 150 219 216 53 109 51 57
51 1429 0 897 -3 1293 -11 1330 -37 176 -193 329 -381 373 -91 21 -3392 21
-3480 -1z m1132 -1547 c0 -402 -4 -431 -61 -500 -55 -67 -97 -82 -229 -82
-104 0 -119 2 -160 25 -82 46 -130 152 -130 287 l0 63 90 0 90 0 0 -42 c1 -64
19 -130 42 -155 32 -34 106 -32 139 3 l24 26 3 369 3 369 94 0 95 0 0 -363z
m866 -102 c90 -253 164 -461 164 -463 0 -1 -48 -1 -107 0 l-107 3 -28 93 -29
92 -174 0 -173 0 -32 -95 -32 -95 -100 0 c-78 0 -99 3 -96 13 2 8 75 217 163
465 l160 452 114 -2 114 -3 163 -460z m428 113 c55 -191 102 -346 103 -344 2
2 48 158 102 347 l98 344 103 3 c80 2 101 0 98 -10 -3 -7 -74 -217 -158 -465
l-154 -453 -93 0 c-51 0 -93 1 -93 3 0 1 -70 207 -155 457 -85 250 -155 458
-155 462 0 5 46 7 102 6 l102 -3 100 -347z"/>
<path d="M3680 4307 c-29 -89 -55 -168 -57 -174 -4 -10 22 -13 111 -13 64 0
116 4 116 8 0 10 -108 333 -113 338 -2 2 -27 -69 -57 -159z"/>
</g>
</svg>
